<svg height="512pt" viewBox="0 -39 512.00037 512" width="512pt" xmlns="http://www.w3.org/2000/svg" xmlns:xlink="http://www.w3.org/1999/xlink"><linearGradient id="a" gradientTransform="matrix(.902626 .439416 -.439416 .902626 102.263852 -133.421895)" gradientUnits="userSpaceOnUse" x1="90.0729" x2="388.4233" y1="274.5974" y2="274.5974"><stop offset="0" stop-color="#d3e843"/><stop offset=".6244" stop-color="#a9c93c"/><stop offset="1" stop-color="#8db437"/></linearGradient><linearGradient id="b"><stop offset="0" stop-color="#ffd459"/><stop offset=".1917" stop-color="#ffd254"/><stop offset=".4166" stop-color="#ffcd46"/><stop offset=".6583" stop-color="#ffc52e"/><stop offset=".9103" stop-color="#ffb90e"/><stop offset="1" stop-color="#ffb400"/></linearGradient><linearGradient id="c" gradientUnits="userSpaceOnUse" x1="399.8867129046" x2="78.176595062" xlink:href="#b" y1="234.7741883796" y2="177.5117825982"/><linearGradient id="d" gradientUnits="userSpaceOnUse" x1="534.0482387874" x2="207.4665894398" y1="298.1781873882" y2="210.493029711"><stop offset="0" stop-color="#e58200" stop-opacity="0"/><stop offset=".6114" stop-color="#bc5836" stop-opacity=".611765"/><stop offset="1" stop-color="#a64153"/></linearGradient><linearGradient id="e" gradientUnits="userSpaceOnUse" x1="106.2150322078" x2="405.71518286" y1="233.3179995186" y2="233.3179995186"><stop offset="0" stop-color="#ff706a"/><stop offset=".8111" stop-color="#f64640"/><stop offset="1" stop-color="#f43b36"/></linearGradient><linearGradient id="f"><stop offset="0" stop-color="#f43b36" stop-opacity="0"/><stop offset=".436" stop-color="#d02021" stop-opacity=".435294"/><stop offset="1" stop-color="#a60108"/></linearGradient><linearGradient id="g" gradientUnits="userSpaceOnUse" x1="243.9163870626" x2="169.4758719392" xlink:href="#f" y1="255.5664169216" y2="181.1259017982"/><linearGradient id="h" gradientUnits="userSpaceOnUse" x1="305.0705968692" x2="182.3904249394" xlink:href="#f" y1="304.1255217084" y2="181.4453497786"/><linearGradient id="i" gradientUnits="userSpaceOnUse" x1="343.119140277" x2="271.01896812" xlink:href="#f" y1="331.5411256454" y2="259.4409534884"/><linearGradient id="j"><stop offset="0" stop-color="#ecf7ff"/><stop offset="1" stop-color="#c2e0ff"/></linearGradient><linearGradient id="k" gradientUnits="userSpaceOnUse" x1="176.7415566298" x2="236.6337360902" xlink:href="#j" y1="218.1166125946" y2="218.1166125946"/><linearGradient id="l" gradientUnits="userSpaceOnUse" x1="207.0268716038" x2="305.804363459" xlink:href="#j" y1="255.2994740618" y2="255.2994740618"/><linearGradient id="m" gradientUnits="userSpaceOnUse" x1="275.2964789776" x2="335.188658438" xlink:href="#j" y1="293.7646450996" y2="293.7646450996"/><linearGradient id="n" gradientUnits="userSpaceOnUse" x1="106.5532535296" x2="405.2455481484" xlink:href="#b" y1="382.883001824" y2="382.883001824"/><radialGradient id="o" cx="255.9655592988" cy="98.809217016" gradientUnits="userSpaceOnUse" r="52.5620429774"><stop offset="0" stop-color="#a60108"/><stop offset=".564" stop-color="#d02021" stop-opacity=".435294"/><stop offset="1" stop-color="#f43b36" stop-opacity="0"/></radialGradient><linearGradient id="p" gradientUnits="userSpaceOnUse" x1="245.6299815244" x2="266.3995214292" y1="52.8684411974" y2="52.8684411974"><stop offset="0" stop-color="#45425a"/><stop offset="1" stop-color="#2d3251"/></linearGradient><path d="m363.488281 92.414062-168.230469-81.886718c-27.902343-13.582032-61.539062-1.976563-75.125 25.933594l-114.453124 235.132812c-13.585938 27.910156-1.964844 61.542969 25.9375 75.125l168.230468 81.886719c27.902344 13.582031 61.539063 1.976562 75.125-25.933594l114.453125-235.132813c13.585938-27.910156 1.964844-61.542968-25.9375-75.125zm-120.761719 34.34375c-15.410156-7.5-21.820312-26.074218-14.316406-41.492187 7.5-15.40625 26.074219-21.820313 41.484375-14.320313 15.40625 7.5 21.820313 26.074219 14.320313 41.484376-7.503906 15.417968-26.078125 21.828124-41.488282 14.328124zm0 0" fill="url(#a)"/><path d="m122.574219 167.539062 114.453125 235.132813c13.585937 27.910156 47.222656 39.515625 75.125 25.933594l168.230468-81.886719c27.902344-13.582031 39.523438-47.214844 25.9375-75.125l-114.453124-235.132812c-13.585938-27.910157-47.222657-39.515626-75.125-25.933594l-168.230469 81.886718c-27.902344 13.582032-39.519531 47.214844-25.9375 75.125zm105.210937-55.109374c-7.5-15.410157-1.085937-33.984376 14.320313-41.484376 15.410156-7.5 33.984375-1.085937 41.484375 14.320313 7.503906 15.417969 1.09375 33.992187-14.316406 41.492187-15.410157 7.5-33.984376 1.089844-41.488282-14.328124zm0 0" fill="url(#c)"/><path d="m506.320312 271.59375-86.898437-178.523438-28.636719-28.636718c-10.265625-11.109375-24.953125-18.066406-41.269531-18.066406h-106.402344l-94.601562 46.046874c-27.902344 13.582032-39.519531 47.214844-25.9375 75.125l114.453125 235.132813c13.585937 27.910156 47.222656 39.515625 75.125 25.933594l168.230468-81.886719c27.902344-13.582031 39.523438-47.214844 25.9375-75.125zm-237.046874-144.835938c-15.410157 7.5-33.984376 1.089844-41.488282-14.328124-7.5-15.410157-1.085937-33.984376 14.320313-41.480469 15.410156-7.503907 33.984375-1.089844 41.484375 14.320312 7.503906 15.414063 1.089844 33.988281-14.316406 41.488281zm0 0" fill="url(#d)"/><path d="m349.515625 46.367188h-187.101563c-31.03125 0-56.199218 25.15625-56.199218 56.199218v261.503906c0 31.042969 25.167968 56.199219 56.199218 56.199219h187.101563c31.03125 0 56.199219-25.15625 56.199219-56.199219v-261.503906c0-31.042968-25.167969-56.199218-56.199219-56.199218zm-93.550781 83.734374c-17.136719 0-31.03125-13.894531-31.03125-31.042968 0-17.136719 13.894531-31.03125 31.03125-31.03125 17.136718 0 31.03125 13.894531 31.03125 31.03125 0 17.148437-13.894532 31.042968-31.03125 31.042968zm0 0" fill="url(#e)"/><path d="m380.902344 333.160156-152.507813-152.476562c-5.492187-4.394532-12.765625-6.589844-21.816406-6.589844-19.890625 0-29.835937 9.160156-29.835937 27.488281v33.074219c0 9.917969 2.941406 17.128906 8.769531 21.679688l110.480469 110.199218c30.859374-5.414062 59.597656-16.976562 84.910156-33.375zm0 0" fill="url(#g)"/><path d="m384.050781 249.195312v81.875c-36.601562 24.597657-80.664062 38.945313-128.085937 38.945313-6.734375 0-13.386719-.304687-19.980469-.878906l-26.476563-26.480469c-1.660156-1.71875-2.480468-3.613281-2.480468-5.699219 0-1.1875.296875-2.316406.894531-3.359375l81.738281-164.199218c1.1875-2.679688 3.417969-4.019532 6.683594-4.019532 2.40625 0 4.578125.816406 6.53125 2.453125zm0 0" fill="url(#h)"/><path d="m384.050781 313.085938v17.964843c-20.898437 14.050781-44.238281 24.75-69.242187 31.339844l-30.746094-30.738281c-5.824219-4.554688-8.761719-11.769532-8.761719-21.6875v-33.070313c0-18.332031 9.9375-27.492187 29.824219-27.492187 9.058594 0 16.335938 2.199218 21.824219 6.589844zm0 0" fill="url(#i)"/><path d="m176.742188 234.652344v-33.074219c0-18.324219 9.945312-27.488281 29.835937-27.488281 9.054687 0 16.328125 2.199218 21.816406 6.59375 5.492188 4.394531 8.238281 11.363281 8.238281 20.894531v33.074219c0 9.535156-2.746093 16.503906-8.238281 20.894531-5.492187 4.398437-12.765625 6.59375-21.816406 6.59375-19.890625 0-29.835937-9.160156-29.835937-27.488281zm15.867187-.371094c0 8.59375 4.652344 12.886719 13.964844 12.886719 9.460937 0 14.191406-4.292969 14.191406-12.886719v-32.328125c0-8.589844-4.730469-12.886719-14.191406-12.886719-9.3125 0-13.964844 4.296875-13.964844 12.886719zm0 0" fill="url(#k)"/><path d="m207.027344 336.957031c0-1.191406.296875-2.308593.890625-3.355469l81.746093-164.203124c1.1875-2.683594 3.414063-4.023438 6.683594-4.023438 2.402344 0 4.574219.820312 6.527344 2.457031 1.953125 1.644531 2.929688 3.652344 2.929688 6.035157 0 1.195312-.222657 2.386718-.667969 3.578124l-81.75 163.53125c-1.339844 2.828126-3.863281 4.25-7.574219 4.25-2.554688 0-4.65625-.859374-6.308594-2.570312-1.652344-1.714844-2.476562-3.617188-2.476562-5.699219zm0 0" fill="url(#l)"/><path d="m326.953125 256.050781c-5.496094-4.429687-12.769531-6.644531-21.820313-6.644531-19.890624 0-29.835937 9.230469-29.835937 27.695312v33.328126c0 18.464843 9.945313 27.695312 29.835937 27.695312 9.050782 0 16.328126-2.214844 21.820313-6.640625 5.488281-4.425781 8.234375-11.445313 8.234375-21.054687v-33.328126c0-9.605468-2.746094-16.625-8.234375-21.050781zm-7.632813 54.066407c0 8.691406-4.730468 13.035156-14.1875 13.035156-9.316406 0-13.96875-4.34375-13.96875-13.035156v-32.707032c0-8.6875 4.652344-13.035156 13.96875-13.035156 9.457032 0 14.1875 4.347656 14.1875 13.035156zm0 0" fill="url(#m)"/><path d="m393.019531 377.488281c-8.378906 4.300781-18.847656 4.300781-27.226562 0l-13.613281-6.984375c-8.378907-4.300781-18.851563-4.300781-27.230469 0l-13.605469 6.984375c-8.378906 4.300781-18.851562 4.300781-27.230469 0l-13.601562-6.984375c-8.378907-4.300781-18.851563-4.300781-27.230469 0l-13.601562 6.984375c-8.382813 4.300781-18.851563 4.300781-27.230469 0l-13.601563-6.984375c-8.378906-4.300781-18.851562-4.300781-27.230468.003906l-13.597657 6.976563c-8.382812 4.304687-18.851562 4.304687-27.234375 0l-14.234375-7.304687c.828125 7.648437 3.191407 14.835937 6.777344 21.25l7.457031 3.828124c8.382813 4.304688 18.851563 4.304688 27.234375 0l13.597657-6.980468c8.378906-4.300782 18.851562-4.300782 27.230468 0l13.601563 6.984375c8.378906 4.300781 18.847656 4.300781 27.230469 0l13.601562-6.984375c8.378906-4.300782 18.851562-4.300782 27.230469 0l13.601562 6.984375c8.378907 4.300781 18.851563 4.300781 27.230469 0l13.605469-6.984375c8.378906-4.300782 18.851562-4.300782 27.230469 0l13.613281 6.984375c8.378906 4.300781 18.847656 4.300781 27.226562 0l4.792969-2.457031c3.855469-6.46875 6.441406-13.78125 7.433594-21.589844zm0 0" fill="url(#n)"/><path d="m259.511719 46.367188c-1.167969-.082032-2.359375-.121094-3.546875-.121094s-2.367188.039062-3.535156.121094c-27.382813 1.820312-49.023438 24.609374-49.023438 52.445312 0 29.03125 23.53125 52.5625 52.558594 52.5625 29.03125 0 52.558594-23.53125 52.558594-52.5625 0-27.839844-21.636719-50.625-49.011719-52.445312zm-3.546875 83.734374c-17.136719 0-31.03125-13.894531-31.03125-31.042968 0-17.136719 13.894531-31.03125 31.03125-31.03125 17.136718 0 31.03125 13.894531 31.03125 31.03125 0 17.148437-13.894532 31.042968-31.03125 31.042968zm0 0" fill="url(#o)"/><path d="m257.101562 105.734375h-2.273437c-10.46875 0-18.953125-8.484375-18.953125-18.953125v-67.828125c0-10.46875 8.484375-18.953125 18.953125-18.953125h2.273437c10.46875 0 18.953126 8.484375 18.953126 18.953125v67.828125c0 10.46875-8.484376 18.953125-18.953126 18.953125zm0 0" fill="url(#p)"/></svg>